<svg width="283" height="283" viewBox="0 0 283 283" fill="none" xmlns="http://www.w3.org/2000/svg">
<path d="M109.821 218.825C78.2121 233.011 73.1825 196.738 66.2169 166.234C66.0159 165.354 65.6467 164.531 65.1216 163.797C48.3493 140.328 24.4139 112.225 55.4667 98.2883C84.3817 85.3113 135.821 101.257 147.925 128.099C160.029 154.94 144.695 203.174 109.821 218.825Z" fill="#0219EB" fill-opacity="0.05"/>
<path d="M125.933 78.263C114.651 88.7853 98.9791 90.3206 90.9287 81.6922C82.8783 73.0638 85.4981 57.5392 96.7801 47.0169C108.062 36.4946 123.734 34.9593 131.784 43.5876C139.835 52.216 137.215 67.7407 125.933 78.263Z" fill="#0219EB" fill-opacity="0.05"/>
<path d="M176.507 222.897C161.15 224.525 147.668 216.344 146.395 204.625C145.121 192.905 156.539 182.085 171.897 180.458C187.254 178.83 200.736 187.011 202.009 198.73C203.283 210.45 191.865 221.27 176.507 222.897Z" fill="#0219EB" fill-opacity="0.05"/>
<path d="M182.357 109.539C165.334 118.157 146.403 115.047 140.073 102.593C133.742 90.1393 142.411 73.0567 159.433 64.4384C176.456 55.8201 195.387 58.9296 201.718 71.3837C208.048 83.8378 199.38 100.92 182.357 109.539Z" fill="#0219EB" fill-opacity="0.05"/>
<path d="M205.296 164.174C187.706 171.573 169.037 167.141 163.596 154.275C158.156 141.409 168.006 124.981 185.595 117.582C203.185 110.184 221.854 114.616 227.295 127.482C232.735 140.348 222.885 156.775 205.296 164.174Z" fill="#0219EB" fill-opacity="0.05"/>
</svg>
