<svg width="200" height="200" viewBox="0 0 200 200" fill="none" xmlns="http://www.w3.org/2000/svg">
<path d="M132.388 177.078C120.068 209.46 90.8618 187.367 64.3672 170.724C63.603 170.243 62.7599 169.923 61.869 169.774C33.4141 165.039 -3.38256 162.092 8.72057 130.28C19.9905 100.658 67.639 75.5603 95.1775 85.9814C122.716 96.4025 145.98 141.352 132.388 177.078Z" fill="#FF6B00" fill-opacity="0.05"/>
<path d="M44.3882 66.2923C43.851 81.7103 33.8549 93.8777 22.0612 93.469C10.2676 93.0602 1.14245 80.2302 1.67965 64.8122C2.21685 49.3942 12.213 37.2268 24.0066 37.6356C35.8003 38.0443 44.9254 50.8743 44.3882 66.2923Z" fill="#FF6B00" fill-opacity="0.05"/>
<path d="M182.421 132.803C172.712 144.814 157.395 148.562 148.207 141.175C139.02 133.789 139.443 118.065 149.152 106.054C158.86 94.0437 174.178 90.2954 183.365 97.682C192.552 105.069 192.13 120.793 182.421 132.803Z" fill="#FF6B00" fill-opacity="0.05"/>
<path d="M106.401 48.5105C100.458 66.6415 84.873 77.8292 71.5906 73.4989C58.3081 69.1685 52.3582 50.96 58.301 32.8291C64.2439 14.6981 79.8291 3.51042 93.1115 7.84074C106.394 12.1711 112.344 30.3796 106.401 48.5105Z" fill="#FF6B00" fill-opacity="0.05"/>
<path d="M161.254 70.923C154.048 88.5925 137.713 98.6597 124.769 93.4089C111.824 88.158 107.173 69.5774 114.379 51.9079C121.585 34.2385 137.92 24.1712 150.865 29.4221C163.809 34.673 168.461 53.2536 161.254 70.923Z" fill="#FF6B00" fill-opacity="0.05"/>
</svg>
