<svg width="245" height="245" viewBox="0 0 245 245" fill="none" xmlns="http://www.w3.org/2000/svg">
<path d="M205.309 111.139C233.399 131.42 204.5 153.913 181.566 175.197C180.904 175.811 180.376 176.542 180.002 177.364C168.064 203.624 155.694 238.404 128.098 218.48C102.402 199.927 90.492 147.407 107.685 123.504C124.879 99.6008 174.318 88.7634 205.309 111.139Z" fill="#0219EB" fill-opacity="0.05"/>
<path d="M75.5224 167.467C90.2759 171.976 99.4416 184.781 95.9943 196.067C92.5471 207.353 77.7925 212.846 63.0389 208.337C48.2853 203.827 39.1197 191.023 42.5669 179.737C46.0141 168.451 60.7688 162.957 75.5224 167.467Z" fill="#0219EB" fill-opacity="0.05"/>
<path d="M175.492 51.3516C184.581 63.8378 184.237 79.6039 174.724 86.5662C165.211 93.5285 150.132 89.0504 141.044 76.5642C131.955 64.0779 132.299 48.3118 141.812 41.3495C151.325 34.3872 166.404 38.8653 175.492 51.3516Z" fill="#0219EB" fill-opacity="0.05"/>
<path d="M74.3958 102.965C90.3709 113.398 97.1436 131.348 89.523 143.057C81.9025 154.766 62.7745 155.8 46.7994 145.367C30.8244 134.934 24.0517 116.985 31.6722 105.275C39.2927 93.5664 58.4207 92.5319 74.3958 102.965Z" fill="#0219EB" fill-opacity="0.05"/>
<path d="M110.242 55.7813C125.445 67.3151 130.941 85.6993 122.519 96.8436C114.097 107.988 94.9452 107.672 79.743 96.1382C64.5407 84.6043 59.0443 66.2201 67.4665 55.0758C75.8887 43.9316 95.0402 44.2474 110.242 55.7813Z" fill="#0219EB" fill-opacity="0.05"/>
</svg>
