<svg width="72" height="55" viewBox="0 0 72 55" fill="none" xmlns="http://www.w3.org/2000/svg">
<g clip-path="url(#clip0_252_74)">
<path d="M11.3856 54.9985H22.1518L50.5294 54.8822C52.6704 54.4911 53.5845 52.6167 53.8236 51.5489C53.8555 51.4062 53.8646 51.2602 53.8646 51.1141V29.5186H56.2516C56.6455 29.5186 57.0412 29.444 57.3913 29.2649C60.888 27.4771 60.1271 24.6137 59.1384 23.1413C59.0219 22.9679 58.8739 22.8194 58.7131 22.6854L35.1995 3.10807C31.0803 -0.335777 26.5009 1.67313 24.726 3.10807L1.39137 22.6327C1.18977 22.8013 1.00897 22.9955 0.871597 23.2189C-1.29499 26.7425 1.25215 29.1223 3.47401 29.6428C3.63708 29.681 3.80465 29.6932 3.97221 29.6932H6.35369V50.1701C6.35369 54.6378 9.52714 54.9985 11.3856 54.9985Z" fill="url(#paint0_linear_252_74)"/>
<path d="M24.735 54.9984H40.8204C40.9077 54.9984 40.9906 54.9602 41.047 54.894L55.1179 38.3656L55.4873 33.2291V23.5674C55.4873 21.3659 54.7485 19.7149 54.256 19.0422C52.9755 17.1344 52.6963 16.0867 52.7169 15.8013L53.2618 11.7415C53.2817 11.5934 53.4843 11.5658 53.5431 11.7033C54.1842 13.2019 54.4596 13.9057 55.241 13.9057C57.2265 13.2858 58.0794 9.94883 58.4741 7.96125C58.5371 7.64396 58.5655 7.32219 58.5655 6.99877V6.21882C58.5655 5.803 58.4967 5.38355 58.29 5.02194C56.6249 2.10892 52.4423 2.13671 51.9781 1.67567C51.6734 1.37297 50.9561 0.928786 50.4188 0.620465C50.1477 0.464822 49.8574 0.343787 49.5509 0.279519C47.5168 -0.147073 44.8293 0.164399 43.667 0.391518C42.4483 0.763962 41.5419 1.64591 41.1919 2.09923C41.1605 2.1398 41.1103 2.16258 41.059 2.15968C37.7098 1.97082 36.1755 4.05215 35.7395 5.33258C35.682 5.50111 35.6636 5.67919 35.6636 5.85711V7.16868C35.6636 7.37842 35.6928 7.58593 35.7538 7.78677C36.4733 10.1589 37.9686 14.2805 38.865 13.9057C39.6301 13.5856 40.4199 12.8079 40.8844 12.2675C40.9746 12.1623 41.1558 12.2198 41.1624 12.3578L41.319 15.6225C41.3242 15.7324 41.2671 15.8356 41.1731 15.8939C38.5726 17.5109 37.4028 21.1742 37.1411 22.8336L35.8483 27.6033C35.0479 30.5385 34.2476 32.0672 32.5854 34.024C30.9232 35.9808 29.9258 36.5556 28.1528 41.3008C26.4621 45.8257 27.2121 50.3023 27.8725 52.2283C27.9112 52.3409 27.8079 52.452 27.692 52.4222C23.4466 51.329 21.3905 49.3334 20.8883 48.4553C18.8197 44.4439 19.4107 40.5467 19.9648 39.0994L23.2951 31.3228C23.3514 31.1915 23.2064 31.0671 23.085 31.1435C19.3531 33.4907 16.7546 36.9074 15.9015 38.3656C14.9985 40.4855 13.8329 45.6302 16.394 49.2504C18.739 52.5649 22.0886 54.2869 23.8345 54.8668C24.1246 54.9632 24.4291 54.9984 24.735 54.9984Z" fill="url(#paint1_linear_252_74)"/>
<path d="M61.1905 54.9384L40.0307 54.9987C37.8726 54.4104 39.2484 51.6701 41.1187 51.6701C41.9821 46.9114 41.2387 43.5863 40.759 42.5186C39.1476 38.5966 40.9029 34.522 41.9821 32.975C39.5073 30.6741 40.0876 26.6997 40.6871 25.0002C39.8238 23.8497 39.9917 21.7971 40.2555 21.0781C42.6152 21.3396 43.9725 22.4944 44.3561 23.0392C45.795 22.7253 48.4568 22.7123 50.0395 23.0392C50.8453 21.6273 53.0131 21.1435 53.9963 21.0781C54.5718 23.3268 53.7565 25.3706 53.2769 26.1114C54.4855 29.5628 52.7733 32.1252 51.7661 32.975C55.5647 35.0145 55.4111 38.8798 54.8596 40.5576C59.7517 43.0155 59.5358 48.9465 58.8165 51.6047H62.1976C65.0753 50.9249 66.7539 49.2297 67.2336 48.4671C67.929 47.2904 69.176 44.3882 68.6004 42.1918C68.0249 39.9954 66.1545 38.2697 65.2911 37.6814C63.5166 36.3959 60.3703 33.694 61.9818 33.1711C63.5934 32.6481 66.3462 34.3477 67.5213 35.2629C69.5357 36.6573 73.1615 40.8975 71.55 46.7021C69.9385 52.5068 63.9722 54.6115 61.1905 54.9384Z" fill="url(#paint2_linear_252_74)"/>
</g>
<defs>
<linearGradient id="paint0_linear_252_74" x1="10.7559" y1="11.6777" x2="49.8978" y2="52.451" gradientUnits="userSpaceOnUse">
<stop stop-color="#0156FF"/>
<stop offset="0.370349" stop-color="#2E50FF"/>
<stop offset="1" stop-color="#030BE7"/>
</linearGradient>
<linearGradient id="paint1_linear_252_74" x1="47.9287" y1="0.0673847" x2="36.7961" y2="55.0752" gradientUnits="userSpaceOnUse">
<stop stop-color="#FFA800"/>
<stop offset="1" stop-color="#FF6B00"/>
</linearGradient>
<linearGradient id="paint2_linear_252_74" x1="46.56" y1="21.0949" x2="68.6041" y2="55.2601" gradientUnits="userSpaceOnUse">
<stop stop-color="#0156FF"/>
<stop offset="1" stop-color="#030DE7"/>
</linearGradient>
<clipPath id="clip0_252_74">
<rect width="72" height="55" fill="white"/>
</clipPath>
</defs>
</svg>
