<svg width="161" height="55" viewBox="0 0 161 55" fill="none" xmlns="http://www.w3.org/2000/svg">
<path d="M81.88 25C81.6267 25 81.4133 24.9333 81.24 24.8C81.08 24.6533 81 24.46 81 24.22V10.16C81 9.93333 81.0733 9.74667 81.22 9.6C81.3667 9.45333 81.5533 9.38 81.78 9.38H86.64C87.44 9.38 88.16 9.55333 88.8 9.9C89.4533 10.2333 89.9667 10.6933 90.34 11.28C90.7267 11.8667 90.92 12.5467 90.92 13.32C90.92 14.04 90.7267 14.68 90.34 15.24C89.9533 15.8 89.4467 16.2267 88.82 16.52C89.7133 16.76 90.4333 17.2133 90.98 17.88C91.5267 18.5333 91.8 19.3667 91.8 20.38C91.8 21.2867 91.5933 22.0867 91.18 22.78C90.7667 23.4733 90.1933 24.02 89.46 24.42C88.74 24.8067 87.9133 25 86.98 25H81.88ZM82.56 23.5H86.98C87.62 23.5 88.1867 23.3733 88.68 23.12C89.1733 22.8667 89.56 22.5067 89.84 22.04C90.12 21.5733 90.26 21.02 90.26 20.38C90.26 19.78 90.12 19.26 89.84 18.82C89.56 18.3667 89.1733 18.02 88.68 17.78C88.1867 17.5267 87.62 17.4 86.98 17.4H82.56V23.5ZM82.56 15.9H86.64C87.44 15.9 88.1 15.6733 88.62 15.22C89.14 14.7667 89.4 14.1333 89.4 13.32C89.4 12.52 89.14 11.9133 88.62 11.5C88.1 11.0867 87.44 10.88 86.64 10.88H82.56V15.9ZM99.6663 25.1C98.5863 25.1 97.6263 24.8667 96.7863 24.4C95.9596 23.92 95.3062 23.26 94.8263 22.42C94.3596 21.58 94.1263 20.62 94.1263 19.54C94.1263 18.4467 94.3463 17.4867 94.7863 16.66C95.2396 15.82 95.8596 15.16 96.6463 14.68C97.4329 14.2 98.3396 13.96 99.3663 13.96C100.38 13.96 101.26 14.1933 102.006 14.66C102.766 15.1133 103.353 15.7467 103.766 16.56C104.18 17.3733 104.386 18.3 104.386 19.34C104.386 19.5533 104.32 19.7267 104.186 19.86C104.053 19.98 103.88 20.04 103.666 20.04H95.1663V18.76H103.826L102.966 19.38C102.98 18.6067 102.84 17.9133 102.546 17.3C102.253 16.6867 101.833 16.2067 101.286 15.86C100.753 15.5133 100.113 15.34 99.3663 15.34C98.6063 15.34 97.9396 15.52 97.3663 15.88C96.7929 16.24 96.3463 16.74 96.0263 17.38C95.7196 18.0067 95.5663 18.7267 95.5663 19.54C95.5663 20.3533 95.7396 21.0733 96.0863 21.7C96.4463 22.3267 96.9329 22.82 97.5463 23.18C98.1596 23.54 98.8663 23.72 99.6663 23.72C100.146 23.72 100.626 23.64 101.106 23.48C101.6 23.3067 101.993 23.0933 102.286 22.84C102.433 22.72 102.6 22.66 102.786 22.66C102.973 22.6467 103.133 22.6933 103.266 22.8C103.44 22.96 103.526 23.1333 103.526 23.32C103.54 23.5067 103.466 23.6667 103.306 23.8C102.866 24.1733 102.306 24.4867 101.626 24.74C100.946 24.98 100.293 25.1 99.6663 25.1ZM107.771 29.68C107.531 29.68 107.338 29.6067 107.191 29.46C107.058 29.3267 106.991 29.14 106.991 28.9V19.46C107.005 18.42 107.251 17.4867 107.731 16.66C108.225 15.82 108.885 15.16 109.711 14.68C110.551 14.2 111.491 13.96 112.531 13.96C113.598 13.96 114.551 14.2067 115.391 14.7C116.231 15.18 116.891 15.84 117.371 16.68C117.865 17.52 118.111 18.4733 118.111 19.54C118.111 20.5933 117.871 21.54 117.391 22.38C116.925 23.22 116.285 23.8867 115.471 24.38C114.658 24.86 113.738 25.1 112.711 25.1C111.818 25.1 111.005 24.9133 110.271 24.54C109.551 24.1533 108.971 23.6467 108.531 23.02V28.9C108.531 29.14 108.458 29.3267 108.311 29.46C108.178 29.6067 107.998 29.68 107.771 29.68ZM112.531 23.7C113.305 23.7 113.998 23.52 114.611 23.16C115.225 22.8 115.705 22.3067 116.051 21.68C116.411 21.04 116.591 20.3267 116.591 19.54C116.591 18.74 116.411 18.0267 116.051 17.4C115.705 16.7733 115.225 16.28 114.611 15.92C113.998 15.5467 113.305 15.36 112.531 15.36C111.771 15.36 111.085 15.5467 110.471 15.92C109.858 16.28 109.378 16.7733 109.031 17.4C108.685 18.0267 108.511 18.74 108.511 19.54C108.511 20.3267 108.685 21.04 109.031 21.68C109.378 22.3067 109.858 22.8 110.471 23.16C111.085 23.52 111.771 23.7 112.531 23.7ZM130.492 25C130.265 25 130.079 24.9333 129.932 24.8C129.785 24.6533 129.712 24.46 129.712 24.22V14.84C129.712 14.6 129.785 14.4133 129.932 14.28C130.079 14.1333 130.265 14.06 130.492 14.06C130.719 14.06 130.899 14.1333 131.032 14.28C131.165 14.4133 131.232 14.6 131.232 14.84V24.22C131.232 24.46 131.165 24.6533 131.032 24.8C130.899 24.9333 130.719 25 130.492 25ZM121.892 25C121.665 25 121.479 24.9333 121.332 24.8C121.199 24.6533 121.132 24.46 121.132 24.22V14.84C121.132 14.6 121.199 14.4133 121.332 14.28C121.479 14.1333 121.665 14.06 121.892 14.06C122.119 14.06 122.299 14.1333 122.432 14.28C122.579 14.4133 122.652 14.6 122.652 14.84V24.22C122.652 24.46 122.579 24.6533 122.432 24.8C122.299 24.9333 122.119 25 121.892 25ZM122.392 20.18V18.8H130.252V20.18H122.392ZM139.243 25.2C138.377 25.2 137.61 25.0267 136.943 24.68C136.29 24.3333 135.77 23.8533 135.383 23.24C135.01 22.6267 134.823 21.92 134.823 21.12V14.82C134.837 14.5933 134.91 14.4133 135.043 14.28C135.19 14.1333 135.377 14.06 135.603 14.06C135.83 14.06 136.01 14.1333 136.143 14.28C136.29 14.4133 136.363 14.6 136.363 14.84V17.68H139.323C140.123 17.68 140.83 17.8333 141.443 18.14C142.07 18.4333 142.557 18.86 142.903 19.42C143.25 19.9667 143.423 20.62 143.423 21.38C143.423 22.1533 143.243 22.8267 142.883 23.4C142.537 23.9733 142.043 24.42 141.403 24.74C140.777 25.0467 140.057 25.2 139.243 25.2ZM139.243 23.78C140.017 23.78 140.657 23.58 141.163 23.18C141.67 22.78 141.923 22.18 141.923 21.38C141.923 20.58 141.677 19.9867 141.183 19.6C140.703 19.2133 140.083 19.02 139.323 19.02H136.363V21.12C136.363 21.8933 136.63 22.5333 137.163 23.04C137.71 23.5333 138.403 23.78 139.243 23.78ZM145.923 25C145.697 25 145.51 24.9333 145.363 24.8C145.23 24.6533 145.163 24.46 145.163 24.22V14.84C145.163 14.6 145.23 14.4133 145.363 14.28C145.51 14.1333 145.697 14.06 145.923 14.06C146.163 14.06 146.35 14.1333 146.483 14.28C146.63 14.4133 146.703 14.6 146.703 14.84V24.22C146.703 24.46 146.63 24.6533 146.483 24.8C146.35 24.9333 146.163 25 145.923 25ZM155.272 25.1C154.192 25.1 153.232 24.8667 152.392 24.4C151.565 23.92 150.912 23.26 150.432 22.42C149.965 21.58 149.732 20.62 149.732 19.54C149.732 18.4467 149.952 17.4867 150.392 16.66C150.845 15.82 151.465 15.16 152.252 14.68C153.038 14.2 153.945 13.96 154.972 13.96C155.985 13.96 156.865 14.1933 157.612 14.66C158.372 15.1133 158.958 15.7467 159.372 16.56C159.785 17.3733 159.992 18.3 159.992 19.34C159.992 19.5533 159.925 19.7267 159.792 19.86C159.658 19.98 159.485 20.04 159.272 20.04H150.772V18.76H159.432L158.572 19.38C158.585 18.6067 158.445 17.9133 158.152 17.3C157.858 16.6867 157.438 16.2067 156.892 15.86C156.358 15.5133 155.718 15.34 154.972 15.34C154.212 15.34 153.545 15.52 152.972 15.88C152.398 16.24 151.952 16.74 151.632 17.38C151.325 18.0067 151.172 18.7267 151.172 19.54C151.172 20.3533 151.345 21.0733 151.692 21.7C152.052 22.3267 152.538 22.82 153.152 23.18C153.765 23.54 154.472 23.72 155.272 23.72C155.752 23.72 156.232 23.64 156.712 23.48C157.205 23.3067 157.598 23.0933 157.892 22.84C158.038 22.72 158.205 22.66 158.392 22.66C158.578 22.6467 158.738 22.6933 158.872 22.8C159.045 22.96 159.132 23.1333 159.132 23.32C159.145 23.5067 159.072 23.6667 158.912 23.8C158.472 24.1733 157.912 24.4867 157.232 24.74C156.552 24.98 155.898 25.1 155.272 25.1ZM85.62 44.1C84.5667 44.1 83.6333 43.8667 82.82 43.4C82.0067 42.92 81.3667 42.26 80.9 41.42C80.4467 40.58 80.22 39.62 80.22 38.54C80.22 37.4467 80.46 36.48 80.94 35.64C81.42 34.8 82.08 34.1467 82.92 33.68C83.76 33.2 84.7133 32.96 85.78 32.96C86.86 32.96 87.8133 33.2 88.64 33.68C89.48 34.1467 90.1333 34.8 90.6 35.64C91.08 36.48 91.3267 37.4467 91.34 38.54L90.44 39.02C90.44 40.0067 90.2333 40.8867 89.82 41.66C89.4067 42.42 88.8333 43.02 88.1 43.46C87.38 43.8867 86.5533 44.1 85.62 44.1ZM85.82 48.32C84.7667 48.32 83.84 48.12 83.04 47.72C82.24 47.3333 81.58 46.8 81.06 46.12C80.9133 45.96 80.8467 45.7867 80.86 45.6C80.8867 45.4133 80.9867 45.26 81.16 45.14C81.3333 45.02 81.5267 44.98 81.74 45.02C81.9533 45.06 82.12 45.16 82.24 45.32C82.6267 45.8 83.12 46.1867 83.72 46.48C84.3333 46.7733 85.04 46.92 85.84 46.92C86.5867 46.92 87.26 46.74 87.86 46.38C88.46 46.02 88.9333 45.5133 89.28 44.86C89.64 44.2067 89.82 43.44 89.82 42.56V39.52L90.4 38.36L91.34 38.54V42.62C91.34 43.7 91.1 44.6667 90.62 45.52C90.14 46.3867 89.4867 47.0667 88.66 47.56C87.8333 48.0667 86.8867 48.32 85.82 48.32ZM85.78 42.7C86.5667 42.7 87.26 42.5267 87.86 42.18C88.4733 41.82 88.9533 41.3267 89.3 40.7C89.6467 40.0733 89.82 39.3533 89.82 38.54C89.82 37.7267 89.6467 37.0067 89.3 36.38C88.9533 35.74 88.4733 35.2467 87.86 34.9C87.26 34.54 86.5667 34.36 85.78 34.36C84.9933 34.36 84.2933 34.54 83.68 34.9C83.0667 35.2467 82.5867 35.74 82.24 36.38C81.8933 37.0067 81.72 37.7267 81.72 38.54C81.72 39.3533 81.8933 40.0733 82.24 40.7C82.5867 41.3267 83.0667 41.82 83.68 42.18C84.2933 42.5267 84.9933 42.7 85.78 42.7ZM95.1152 48.68C94.8752 48.68 94.6818 48.6067 94.5352 48.46C94.4018 48.3267 94.3352 48.14 94.3352 47.9V38.46C94.3485 37.42 94.5952 36.4867 95.0752 35.66C95.5685 34.82 96.2285 34.16 97.0552 33.68C97.8952 33.2 98.8352 32.96 99.8752 32.96C100.942 32.96 101.895 33.2067 102.735 33.7C103.575 34.18 104.235 34.84 104.715 35.68C105.208 36.52 105.455 37.4733 105.455 38.54C105.455 39.5933 105.215 40.54 104.735 41.38C104.268 42.22 103.628 42.8867 102.815 43.38C102.002 43.86 101.082 44.1 100.055 44.1C99.1618 44.1 98.3485 43.9133 97.6152 43.54C96.8952 43.1533 96.3152 42.6467 95.8752 42.02V47.9C95.8752 48.14 95.8018 48.3267 95.6552 48.46C95.5218 48.6067 95.3418 48.68 95.1152 48.68ZM99.8752 42.7C100.648 42.7 101.342 42.52 101.955 42.16C102.568 41.8 103.048 41.3067 103.395 40.68C103.755 40.04 103.935 39.3267 103.935 38.54C103.935 37.74 103.755 37.0267 103.395 36.4C103.048 35.7733 102.568 35.28 101.955 34.92C101.342 34.5467 100.648 34.36 99.8752 34.36C99.1152 34.36 98.4285 34.5467 97.8152 34.92C97.2018 35.28 96.7218 35.7733 96.3752 36.4C96.0285 37.0267 95.8552 37.74 95.8552 38.54C95.8552 39.3267 96.0285 40.04 96.3752 40.68C96.7218 41.3067 97.2018 41.8 97.8152 42.16C98.4285 42.52 99.1152 42.7 99.8752 42.7ZM107.79 48.78C107.497 48.7933 107.204 48.7533 106.91 48.66C106.63 48.58 106.35 48.46 106.07 48.3C105.857 48.1667 105.724 47.9933 105.67 47.78C105.604 47.58 105.644 47.3867 105.79 47.2C105.924 47.0267 106.084 46.9333 106.27 46.92C106.47 46.92 106.677 46.9733 106.89 47.08C107.037 47.1733 107.184 47.24 107.33 47.28C107.477 47.32 107.644 47.34 107.83 47.34C108.27 47.3267 108.69 47.12 109.09 46.72C109.504 46.32 109.877 45.74 110.21 44.98L115.19 33.48C115.27 33.28 115.404 33.1467 115.59 33.08C115.79 33 115.99 33.0067 116.19 33.1C116.377 33.18 116.497 33.3133 116.55 33.5C116.617 33.6867 116.604 33.8867 116.51 34.1L111.51 45.58C111.084 46.54 110.544 47.3133 109.89 47.9C109.25 48.4867 108.55 48.78 107.79 48.78ZM111.97 43.66C111.77 43.7533 111.584 43.7733 111.41 43.72C111.237 43.6533 111.097 43.52 110.99 43.32L106.53 34.08C106.437 33.88 106.424 33.6933 106.49 33.52C106.557 33.3467 106.69 33.2133 106.89 33.12C107.09 33.0267 107.277 33.0133 107.45 33.08C107.624 33.1333 107.757 33.26 107.85 33.46L112.25 42.66C112.344 42.86 112.37 43.0533 112.33 43.24C112.29 43.4267 112.17 43.5667 111.97 43.66ZM122.522 44.18C121.948 44.18 121.388 44.1067 120.842 43.96C120.295 43.8 119.802 43.5867 119.362 43.32C118.922 43.04 118.575 42.7333 118.322 42.4C118.188 42.2267 118.135 42.04 118.162 41.84C118.202 41.64 118.322 41.48 118.522 41.36C118.668 41.2667 118.842 41.2467 119.042 41.3C119.255 41.34 119.428 41.4333 119.562 41.58C119.895 41.9267 120.315 42.2133 120.822 42.44C121.328 42.6667 121.888 42.78 122.502 42.78C123.302 42.78 123.948 42.6133 124.442 42.28C124.948 41.9467 125.202 41.4733 125.202 40.86C125.202 40.3267 125.002 39.88 124.602 39.52C124.215 39.16 123.728 38.9667 123.142 38.94H122.122C121.868 38.94 121.662 38.88 121.502 38.76C121.342 38.6267 121.262 38.4667 121.262 38.28C121.262 38.0933 121.342 37.94 121.502 37.82C121.662 37.7 121.868 37.64 122.122 37.64H123.142C123.635 37.6267 124.035 37.46 124.342 37.14C124.648 36.82 124.802 36.4267 124.802 35.96C124.802 35.48 124.588 35.0867 124.162 34.78C123.748 34.4733 123.188 34.32 122.482 34.32C121.828 34.32 121.282 34.4267 120.842 34.64C120.402 34.8533 120.048 35.1267 119.782 35.46C119.635 35.62 119.462 35.72 119.262 35.76C119.075 35.7867 118.895 35.7467 118.722 35.64C118.548 35.5467 118.448 35.4 118.422 35.2C118.408 35 118.468 34.8133 118.602 34.64C119.028 34.1467 119.568 33.7333 120.222 33.4C120.888 33.0667 121.635 32.9 122.462 32.9C123.208 32.9 123.868 33.0333 124.442 33.3C125.028 33.5533 125.488 33.9067 125.822 34.36C126.155 34.8 126.322 35.2933 126.322 35.84C126.322 36.28 126.202 36.6867 125.962 37.06C125.735 37.42 125.422 37.72 125.022 37.96C124.635 38.1867 124.202 38.32 123.722 38.36V38.14C124.282 38.14 124.788 38.26 125.242 38.5C125.695 38.74 126.055 39.0733 126.322 39.5C126.588 39.9133 126.722 40.38 126.722 40.9C126.722 41.5267 126.535 42.0867 126.162 42.58C125.802 43.0733 125.302 43.4667 124.662 43.76C124.035 44.04 123.322 44.18 122.522 44.18ZM133.975 44.2C133.055 44.2 132.248 44.0267 131.555 43.68C130.862 43.3333 130.315 42.86 129.915 42.26C129.528 41.6467 129.335 40.9333 129.335 40.12V33.82C129.348 33.5933 129.428 33.4133 129.575 33.28C129.722 33.1333 129.902 33.06 130.115 33.06C130.328 33.06 130.508 33.1333 130.655 33.28C130.802 33.4267 130.875 33.6133 130.875 33.84V36.68H134.135C135.002 36.68 135.762 36.8333 136.415 37.14C137.082 37.4467 137.595 37.88 137.955 38.44C138.328 39 138.515 39.6467 138.515 40.38C138.515 41.1133 138.322 41.7733 137.935 42.36C137.562 42.9333 137.035 43.3867 136.355 43.72C135.675 44.04 134.882 44.2 133.975 44.2ZM133.975 42.78C134.842 42.78 135.562 42.58 136.135 42.18C136.708 41.78 136.995 41.18 136.995 40.38C136.995 39.6333 136.742 39.0533 136.235 38.64C135.728 38.2267 135.028 38.02 134.135 38.02H130.875V40.12C130.875 40.6267 131.002 41.0867 131.255 41.5C131.522 41.9 131.882 42.2133 132.335 42.44C132.802 42.6667 133.348 42.78 133.975 42.78ZM148.313 44C148.1 44 147.92 43.9333 147.773 43.8C147.64 43.6533 147.573 43.46 147.573 43.22V40.22H144.373V40.02C143.693 40.02 143.086 39.88 142.553 39.6C142.02 39.3067 141.606 38.9067 141.313 38.4C141.02 37.8933 140.873 37.3067 140.873 36.64C140.873 35.9467 141.033 35.3333 141.353 34.8C141.686 34.2533 142.146 33.8267 142.733 33.52C143.32 33.2133 143.993 33.06 144.753 33.06H148.313C148.553 33.06 148.74 33.1333 148.873 33.28C149.02 33.4133 149.093 33.6 149.093 33.84V43.24C149.08 43.4667 149 43.6533 148.853 43.8C148.72 43.9333 148.54 44 148.313 44ZM140.833 43.8C140.673 43.6533 140.593 43.4933 140.593 43.32C140.606 43.1467 140.673 42.98 140.793 42.82L143.593 39.26L145.573 39.3L141.973 43.72C141.813 43.92 141.613 44.0133 141.373 44C141.146 44 140.966 43.9333 140.833 43.8ZM144.753 38.9H147.573V34.48H144.753C144.073 34.48 143.506 34.68 143.053 35.08C142.6 35.4667 142.373 35.9867 142.373 36.64C142.373 37.3467 142.6 37.9 143.053 38.3C143.506 38.7 144.073 38.9 144.753 38.9Z" fill="#0219EB"/>
<g clip-path="url(#clip0_505_10)">
<path d="M11.3856 54.9985H22.1518L50.5294 54.8822C52.6704 54.4911 53.5845 52.6167 53.8236 51.5489C53.8555 51.4062 53.8646 51.2602 53.8646 51.1141V29.5186H56.2516C56.6455 29.5186 57.0412 29.444 57.3913 29.2649C60.888 27.4771 60.1271 24.6137 59.1384 23.1413C59.0219 22.9679 58.8739 22.8194 58.7131 22.6854L35.1995 3.10807C31.0803 -0.335777 26.5009 1.67313 24.726 3.10807L1.39137 22.6327C1.18977 22.8013 1.00897 22.9955 0.871597 23.2189C-1.29499 26.7425 1.25215 29.1223 3.47401 29.6428C3.63708 29.681 3.80465 29.6932 3.97221 29.6932H6.35369V50.1701C6.35369 54.6378 9.52714 54.9985 11.3856 54.9985Z" fill="url(#paint0_linear_505_10)"/>
<path d="M24.735 54.9984H40.8204C40.9077 54.9984 40.9906 54.9602 41.047 54.894L55.1179 38.3656L55.4873 33.2291V23.5674C55.4873 21.3659 54.7485 19.7149 54.256 19.0422C52.9755 17.1344 52.6963 16.0867 52.7169 15.8013L53.2618 11.7415C53.2817 11.5934 53.4843 11.5658 53.5431 11.7033C54.1842 13.2019 54.4596 13.9057 55.241 13.9057C57.2265 13.2858 58.0794 9.94883 58.4741 7.96125C58.5371 7.64396 58.5655 7.32219 58.5655 6.99877V6.21882C58.5655 5.803 58.4967 5.38355 58.29 5.02194C56.6249 2.10892 52.4423 2.13671 51.9781 1.67567C51.6734 1.37297 50.9561 0.928786 50.4188 0.620465C50.1477 0.464822 49.8574 0.343787 49.5509 0.279519C47.5168 -0.147073 44.8293 0.164399 43.667 0.391518C42.4483 0.763962 41.5419 1.64591 41.1919 2.09923C41.1605 2.1398 41.1103 2.16258 41.059 2.15968C37.7098 1.97082 36.1755 4.05215 35.7395 5.33258C35.682 5.50111 35.6636 5.67919 35.6636 5.85711V7.16868C35.6636 7.37842 35.6928 7.58593 35.7538 7.78677C36.4733 10.1589 37.9686 14.2805 38.865 13.9057C39.6301 13.5856 40.4199 12.8079 40.8844 12.2675C40.9746 12.1623 41.1558 12.2198 41.1624 12.3578L41.319 15.6225C41.3242 15.7324 41.2671 15.8356 41.1731 15.8939C38.5726 17.5109 37.4028 21.1742 37.1411 22.8336L35.8483 27.6033C35.0479 30.5385 34.2476 32.0672 32.5854 34.024C30.9232 35.9808 29.9258 36.5556 28.1528 41.3008C26.4621 45.8257 27.2121 50.3023 27.8725 52.2283C27.9112 52.3409 27.8079 52.452 27.692 52.4222C23.4466 51.329 21.3905 49.3334 20.8883 48.4553C18.8197 44.4439 19.4107 40.5467 19.9648 39.0994L23.2951 31.3228C23.3514 31.1915 23.2064 31.0671 23.085 31.1435C19.3531 33.4907 16.7546 36.9074 15.9015 38.3656C14.9985 40.4855 13.8329 45.6302 16.394 49.2504C18.739 52.5649 22.0886 54.2869 23.8345 54.8668C24.1246 54.9632 24.4291 54.9984 24.735 54.9984Z" fill="url(#paint1_linear_505_10)"/>
<path d="M61.1905 54.9381L40.0307 54.9984C37.8726 54.4102 39.2484 51.6699 41.1187 51.6699C41.9821 46.9111 41.2387 43.586 40.759 42.5184C39.1476 38.5963 40.9029 34.5217 41.9821 32.9747C39.5073 30.6738 40.0876 26.6995 40.6871 24.9999C39.8238 23.8494 39.9917 21.7969 40.2555 21.0779C42.6152 21.3394 43.9725 22.4942 44.3561 23.0389C45.795 22.7251 48.4568 22.7121 50.0395 23.0389C50.8453 21.627 53.0131 21.1432 53.9963 21.0779C54.5718 23.3266 53.7565 25.3704 53.2769 26.1111C54.4855 29.5625 52.7733 32.1249 51.7661 32.9747C55.5647 35.0142 55.4111 38.8796 54.8596 40.5574C59.7517 43.0152 59.5358 48.9462 58.8165 51.6044H62.1976C65.0753 50.9247 66.7539 49.2294 67.2336 48.4668C67.929 47.2902 69.176 44.3879 68.6004 42.1916C68.0249 39.9952 66.1545 38.2695 65.2911 37.6812C63.5166 36.3957 60.3703 33.6938 61.9818 33.1709C63.5934 32.6479 66.3462 34.3474 67.5213 35.2626C69.5357 36.6571 73.1615 40.8972 71.55 46.7018C69.9385 52.5065 63.9722 54.6113 61.1905 54.9381Z" fill="url(#paint2_linear_505_10)"/>
</g>
<defs>
<linearGradient id="paint0_linear_505_10" x1="10.7559" y1="11.6777" x2="49.8978" y2="52.451" gradientUnits="userSpaceOnUse">
<stop stop-color="#0156FF"/>
<stop offset="0.370349" stop-color="#2E50FF"/>
<stop offset="1" stop-color="#030BE7"/>
</linearGradient>
<linearGradient id="paint1_linear_505_10" x1="47.9287" y1="0.0673847" x2="36.7961" y2="55.0752" gradientUnits="userSpaceOnUse">
<stop stop-color="#FFA800"/>
<stop offset="1" stop-color="#FF6B00"/>
</linearGradient>
<linearGradient id="paint2_linear_505_10" x1="46.56" y1="21.0946" x2="68.6041" y2="55.2598" gradientUnits="userSpaceOnUse">
<stop stop-color="#0156FF"/>
<stop offset="1" stop-color="#030DE7"/>
</linearGradient>
<clipPath id="clip0_505_10">
<rect width="72" height="55" fill="white"/>
</clipPath>
</defs>
</svg>
