<svg width="123" height="123" viewBox="0 0 123 123" fill="none" xmlns="http://www.w3.org/2000/svg">
<path d="M102.874 55.7892C116.919 65.9299 102.47 77.1762 91.0027 87.8182C90.672 88.1252 90.4079 88.4909 90.221 88.9019C84.2517 102.032 78.0666 119.422 64.2688 109.46C51.4209 100.183 45.4659 73.9231 54.0626 61.9716C62.6594 50.0201 87.3788 44.6014 102.874 55.7892Z" fill="#0500E4" fill-opacity="0.05"/>
<path d="M37.9815 83.954C45.3582 86.2086 49.941 92.611 48.2174 98.254C46.4938 103.897 39.1165 106.644 31.7397 104.389C24.363 102.134 19.7802 95.7321 21.5038 90.0891C23.2274 84.4461 30.6047 81.6993 37.9815 83.954Z" fill="#0500E4" fill-opacity="0.05"/>
<path d="M87.9655 25.8956C92.5097 32.1387 92.3378 40.0218 87.5814 43.5029C82.8251 46.9841 75.2855 44.745 70.7413 38.5019C66.1972 32.2588 66.3691 24.3757 71.1255 20.8946C75.8818 17.4135 83.4214 19.6525 87.9655 25.8956Z" fill="#0500E4" fill-opacity="0.05"/>
<path d="M37.4178 51.7019C45.4053 56.9184 48.7917 65.8932 44.9814 71.7478C41.1712 77.6023 31.6072 78.1196 23.6197 72.9031C15.6322 67.6866 12.2458 58.7117 16.0561 52.8572C19.8663 47.0026 29.4303 46.4854 37.4178 51.7019Z" fill="#0500E4" fill-opacity="0.05"/>
<path d="M55.3405 28.1102C62.9416 33.8771 65.6898 43.0692 61.4787 48.6413C57.2676 54.2134 47.6919 54.0555 40.0908 48.2886C32.4897 42.5217 29.7415 33.3296 33.9526 27.7575C38.1637 22.1853 47.7394 22.3432 55.3405 28.1102Z" fill="#0500E4" fill-opacity="0.05"/>
</svg>
