<svg width="141" height="141" viewBox="0 0 141 141" fill="none" xmlns="http://www.w3.org/2000/svg">
<path d="M59.2851 110.627C44.4516 119.575 39.7672 101.874 34.47 87.1534C34.3172 86.7288 34.0842 86.3426 33.7793 86.0095C24.0388 75.3724 10.4634 62.8672 25.0358 54.0769C38.6049 45.8918 65.0985 50.7039 72.7252 63.2965C80.352 75.8892 75.6504 100.755 59.2851 110.627Z" fill="#0500E4" fill-opacity="0.05"/>
<path d="M58.803 39.8872C53.8379 45.7904 46.1517 47.4978 41.6355 43.7007C37.1193 39.9036 37.4832 32.0399 42.4483 26.1367C47.4134 20.2335 55.0995 18.5262 59.6158 22.3233C64.132 26.1204 63.7681 33.984 58.803 39.8872Z" fill="#0500E4" fill-opacity="0.05"/>
<path d="M92.6302 108.625C85.1056 110.359 77.9204 107.112 76.5816 101.372C75.2428 95.6319 80.2573 89.5728 87.7819 87.8385C95.3064 86.1043 102.492 89.3517 103.83 95.0918C105.169 100.832 100.155 106.891 92.6302 108.625Z" fill="#0500E4" fill-opacity="0.05"/>
<path d="M88.6962 52.0075C80.7669 57.3119 71.1828 56.9104 67.2897 51.1106C63.3965 45.3109 66.6685 36.3091 74.5979 31.0047C82.5273 25.7002 92.1113 26.1018 96.0045 31.9015C99.8976 37.7013 96.6256 46.703 88.6962 52.0075Z" fill="#0500E4" fill-opacity="0.05"/>
<path d="M103.378 77.7417C95.0933 82.4749 85.5595 81.4011 82.0832 75.3432C78.607 69.2854 82.5048 60.5375 90.7891 55.8042C99.0735 51.0709 108.607 52.1448 112.084 58.2026C115.56 64.2605 111.662 73.0084 103.378 77.7417Z" fill="#0500E4" fill-opacity="0.05"/>
</svg>
