<svg width="137" height="137" viewBox="0 0 137 137" fill="none" xmlns="http://www.w3.org/2000/svg">
<path d="M73.5463 26.8285C86.9766 15.8866 94.0999 32.7546 101.411 46.5851C101.622 46.9841 101.907 47.3338 102.256 47.6207C113.393 56.7848 128.59 67.2601 115.396 78.0093C103.111 88.0186 76.204 86.974 66.8847 75.5769C57.5655 64.1798 58.7292 38.9002 73.5463 26.8285Z" fill="#0500E4" fill-opacity="0.05"/>
<path d="M83.9558 96.7995C88.0429 90.2577 95.4132 87.4881 100.418 90.6135C105.422 93.7389 106.166 101.576 102.079 108.118C97.992 114.659 90.6218 117.429 85.6171 114.304C80.6125 111.178 79.8687 103.341 83.9558 96.7995Z" fill="#0500E4" fill-opacity="0.05"/>
<path d="M40.8126 33.492C48.0191 30.7185 55.5891 32.9249 57.7206 38.4202C59.8521 43.9154 55.7379 50.6186 48.5314 53.3921C41.3249 56.1656 33.755 53.9592 31.6235 48.4639C29.492 42.9687 33.6061 36.2655 40.8126 33.492Z" fill="#0500E4" fill-opacity="0.05"/>
<path d="M52.6569 88.9965C59.763 82.6313 69.3085 81.6832 73.9774 86.8789C78.6463 92.0746 76.6706 101.447 69.5645 107.812C62.4584 114.177 52.9129 115.125 48.244 109.929C43.5751 104.734 45.5509 95.3617 52.6569 88.9965Z" fill="#0500E4" fill-opacity="0.05"/>
<path d="M34.5077 65.5785C42.0454 59.729 51.6356 59.4536 55.928 64.9633C60.2203 70.4731 57.5894 79.6816 50.0517 85.5312C42.5139 91.3807 32.9238 91.6561 28.6314 86.1463C24.3391 80.6366 26.97 71.428 34.5077 65.5785Z" fill="#0500E4" fill-opacity="0.05"/>
</svg>
