<svg width="118" height="118" viewBox="0 0 118 118" fill="none" xmlns="http://www.w3.org/2000/svg">
<path d="M17.9101 67.1543C3.25395 57.9188 16.9662 45.7843 27.7398 34.4407C28.0506 34.1135 28.2911 33.732 28.4517 33.3099C33.5818 19.8299 38.6589 2.08462 53.057 11.1576C66.464 19.6059 74.0619 45.439 66.2353 57.9085C58.4087 70.378 34.0797 77.3436 17.9101 67.1543Z" fill="#0500E4" fill-opacity="0.04"/>
<path d="M80.8989 34.9566C73.3947 33.1712 68.4176 27.0703 69.7822 21.3299C71.1468 15.5895 78.3364 12.3833 85.8406 14.1686C93.3449 15.954 98.322 22.0549 96.9574 27.7953C95.5928 33.5358 88.4031 36.742 80.8989 34.9566Z" fill="#0500E4" fill-opacity="0.04"/>
<path d="M34.672 96.0489C29.7435 90.1045 29.4184 82.2262 33.9459 78.4522C38.4735 74.6783 46.1392 76.4378 51.0677 82.3822C55.9963 88.3266 56.3214 96.2049 51.7938 99.9788C47.2663 103.753 39.6006 101.993 34.672 96.0489Z" fill="#0500E4" fill-opacity="0.04"/>
<path d="M83.4935 67.1091C75.1931 62.4062 71.248 53.6625 74.6818 47.5795C78.1156 41.4965 87.628 40.3776 95.9284 45.0804C104.229 49.7833 108.174 58.527 104.74 64.61C101.306 70.6931 91.7939 71.8119 83.4935 67.1091Z" fill="#0500E4" fill-opacity="0.04"/>
<path d="M67.0924 91.7837C59.1429 86.5071 55.821 77.5064 59.6726 71.68C63.5243 65.8535 73.0909 65.4078 81.0404 70.6843C88.9898 75.9608 92.3117 84.9615 88.4601 90.788C84.6084 96.6144 75.0418 97.0602 67.0924 91.7837Z" fill="#0500E4" fill-opacity="0.04"/>
</svg>
