<svg width="138" height="138" viewBox="0 0 138 138" fill="none" xmlns="http://www.w3.org/2000/svg">
<path d="M102.531 94.5156C105.292 111.618 87.1225 109.353 71.489 108.769C71.038 108.752 70.5928 108.824 70.1699 108.983C56.6647 114.046 39.9945 121.969 37.2822 105.168C34.7567 89.5241 49.1149 66.7444 63.6447 64.3722C78.1746 62 99.4856 75.6477 102.531 94.5156Z" fill="#0500E4" fill-opacity="0.04"/>
<path d="M36.7301 68.5447C40.352 75.3552 39.0653 83.1229 33.8563 85.8943C28.6473 88.6658 21.4885 85.3915 17.8666 78.581C14.2447 71.7705 15.5313 64.0028 20.7403 61.2314C25.9493 58.4599 33.1082 61.7342 36.7301 68.5447Z" fill="#0500E4" fill-opacity="0.04"/>
<path d="M113.128 62.836C111.926 70.4638 106.231 75.9164 100.406 75.0147C94.581 74.113 90.8329 67.1985 92.0343 59.5707C93.2356 51.9428 98.9314 46.4902 104.756 47.3919C110.581 48.2936 114.329 55.2082 113.128 62.836Z" fill="#0500E4" fill-opacity="0.04"/>
<path d="M59.1371 45.3407C61.0965 54.6774 57.1448 63.4181 50.3107 64.8637C43.4766 66.3092 36.3481 59.9122 34.3886 50.5755C32.4292 41.2388 36.3809 32.4981 43.215 31.0525C50.0491 29.607 57.1776 36.004 59.1371 45.3407Z" fill="#0500E4" fill-opacity="0.04"/>
<path d="M88.4928 41.3321C89.7898 50.7847 85.2332 59.2278 78.3154 60.1902C71.3975 61.1526 64.7381 54.2699 63.4412 44.8172C62.1442 35.3646 66.7008 26.9215 73.6186 25.9591C80.5364 24.9967 87.1958 31.8794 88.4928 41.3321Z" fill="#0500E4" fill-opacity="0.04"/>
</svg>
