<svg width="134" height="134" viewBox="0 0 134 134" fill="none" xmlns="http://www.w3.org/2000/svg">
<path d="M24.8476 64.7161C12.8607 52.2095 29.101 43.7524 42.2986 35.3519C42.6792 35.1096 43.0049 34.7976 43.2628 34.4269C51.5013 22.5883 60.7201 6.5982 72.496 18.8846C83.4612 30.3251 84.5847 57.2287 73.9743 67.4346C63.3638 77.6405 38.0724 78.514 24.8476 64.7161Z" fill="#FF8A00" fill-opacity="0.05"/>
<path d="M93.755 48.7122C86.9054 45.1646 83.5519 38.041 86.2645 32.8012C88.9772 27.5613 96.7288 26.1895 103.578 29.7371C110.428 33.2847 113.781 40.4084 111.069 45.6482C108.356 50.888 100.604 52.2598 93.755 48.7122Z" fill="#FF8A00" fill-opacity="0.05"/>
<path d="M34.123 96.8081C30.7787 89.848 32.3689 82.1251 37.6749 79.5585C42.9809 76.9918 49.9934 80.5534 53.3377 87.5134C56.682 94.4735 55.0917 102.196 49.7857 104.763C44.4797 107.33 37.4673 103.768 34.123 96.8081Z" fill="#FF8A00" fill-opacity="0.05"/>
<path d="M88.4939 80.5373C81.5776 73.9663 79.8646 64.528 84.6679 59.4563C89.4711 54.3846 98.9717 55.6 105.888 62.171C112.804 68.742 114.517 78.1803 109.714 83.252C104.911 88.3237 95.4102 87.1083 88.4939 80.5373Z" fill="#FF8A00" fill-opacity="0.05"/>
<path d="M66.6124 100.512C60.1754 93.4689 59.1293 83.932 64.276 79.2103C69.4226 74.4887 78.813 76.3703 85.25 83.413C91.687 90.4558 92.7331 99.9927 87.5865 104.714C82.4399 109.436 73.0494 107.554 66.6124 100.512Z" fill="#FF8A00" fill-opacity="0.05"/>
</svg>
